<svg width="95" height="93" viewBox="0 0 95 93" fill="none" xmlns="http://www.w3.org/2000/svg">
<g clip-path="url(#clip0_309_10)">
<path d="M67.1815 48.5672C69.6343 48.5441 71.6784 49.8608 73.2228 51.8937C73.6089 52.4019 73.8814 52.9563 73.9041 53.6263C73.9496 54.5965 73.6543 55.1971 72.9503 55.4512C72.2008 55.7284 71.5194 55.4743 71.0198 54.6196C70.293 53.326 69.1574 52.6329 67.8401 52.194C67.3632 52.0554 66.8635 52.0323 66.3639 51.9168C65.4781 51.7089 64.8195 50.9466 64.8195 50.138C64.8195 49.1909 65.2283 48.752 66.1594 48.6596C66.5001 48.6365 66.8181 48.5672 67.1815 48.5672Z" fill="#23353D"/>
<path d="M73.5862 45.1944C73.5635 45.3099 73.5635 45.5178 73.518 45.7026C73.3818 46.3726 72.814 46.9732 72.2008 47.0194C71.5421 47.0656 71.0425 46.7191 70.7699 46.1415C70.4747 45.5409 70.2703 44.8941 69.9977 44.2704C69.4072 42.9536 68.3398 42.122 67.2269 41.3135C66.5683 40.8515 66.3638 40.0429 66.6818 39.2806C66.9771 38.5645 67.613 38.218 68.4306 38.449C70.134 38.911 71.3604 40.0891 72.3143 41.4983C73.0638 42.5609 73.5862 43.7622 73.5862 45.1944Z" fill="#21343A"/>
<path d="M73.3136 61.3651C73.1546 60.5565 72.6777 59.9097 72.2916 59.2398C71.5648 58.0155 70.5655 57.3224 69.2936 56.5601C67.8174 55.6592 66.2276 55.6823 64.5923 55.6592C64.0699 55.6592 62.2303 55.9364 61.5944 56.2829C60.8222 56.7218 60.6859 57.7844 61.2083 58.5006C61.7079 59.1936 62.412 59.1243 63.0479 58.9857C64.456 58.6854 65.8415 58.824 67.1587 59.2629C68.7259 59.7942 69.7025 60.9724 70.293 62.5432C70.7245 63.7213 71.2014 63.9755 72.3597 63.6982C73.2001 63.3286 73.5407 62.5201 73.3136 61.3651Z" fill="#283739"/>
<path d="M85.0556 26.6679C84.942 26.4368 84.8739 26.3213 84.5559 26.0903C84.2607 25.8593 83.0797 25.8824 82.6254 26.0672C82.0577 26.2982 82.0122 26.8758 82.0122 27.4071C82.0122 29.0241 81.9895 32.5123 82.0122 34.0601C82.3302 33.9908 82.2394 34.2449 82.4892 34.3373C82.5346 34.3604 82.6027 34.3604 82.6482 34.3604C82.6482 34.499 82.6936 34.6376 82.7617 34.7762C83.4204 35.3768 83.6702 36.2085 84.0336 36.9939C84.3288 37.1787 84.2834 37.479 84.3288 37.7562C84.4424 38.4954 84.3061 39.2347 84.3743 39.997C84.4197 40.1587 84.4651 40.3666 84.7149 40.3435C85.0556 39.6505 85.101 38.1489 85.101 38.1489L85.1464 27.8691C85.1692 27.8691 85.26 27.0144 85.0556 26.6679Z" fill="#233440"/>
<path d="M81.2854 44.4092C79.6047 43.8085 78.5146 42.7228 78.1966 40.8748C78.0603 40.0431 78.1285 39.2115 78.0831 38.3799C78.0603 37.6406 77.6288 37.0631 77.061 37.0169C76.6295 36.9938 76.2434 37.0631 76.2434 37.0631C75.5621 37.1786 75.4258 37.7099 75.3804 38.2644C75.3349 39.1191 75.2668 39.9969 75.4031 40.8285C75.5166 41.6602 75.5166 42.3301 76.1753 43.7854C76.9702 45.5642 78.4692 46.6037 80.2407 47.2275C80.4224 47.2506 81.1264 47.4585 81.24 47.3199C81.4217 46.7192 81.2173 45.9569 81.6942 45.518C81.9213 45.3101 82.4664 45.056 82.3074 44.6864C82.0349 44.6402 81.5352 44.5016 81.2854 44.4092Z" fill="#223137"/>
<path d="M89.0074 37.8715C88.9847 37.2015 88.4396 36.855 87.7582 36.7857C87.0542 36.7164 86.6227 37.1784 86.4637 37.7098C86.3501 38.0563 86.441 38.449 86.4637 38.8186C86.5091 40.2739 86.3728 41.6831 85.4871 42.9074C84.783 43.6235 83.9654 44.2011 83.0115 44.5245C82.7389 44.6169 82.2847 44.6631 81.9667 44.6862C81.8532 45.0789 82.5345 45.5871 82.8298 45.7257C83.5793 45.795 83.0796 46.8346 83.5339 47.2042C84.6694 47.4121 86.5999 46.3494 87.3721 45.3099C87.6674 44.9172 88.167 44.0394 88.3487 43.6697C89.2572 41.8448 89.0982 39.8581 89.0074 37.8715Z" fill="#223137"/>
<path d="M81.2173 55.2202C79.5366 54.6196 78.4465 53.5338 78.1285 51.6858C77.9922 50.8542 78.0604 50.0225 78.0149 49.1909C77.9922 48.4517 77.5607 47.8742 76.9929 47.828C76.5614 47.8049 76.1753 47.8742 76.1753 47.8742C75.4939 47.9897 75.3577 48.521 75.3122 49.0754C75.2668 49.9301 75.1987 50.808 75.335 51.6396C75.4485 52.4712 75.4485 53.1411 76.1072 54.5965C76.9021 56.3752 78.401 57.4148 80.1726 58.0385C80.3543 58.0616 81.0583 58.2695 81.1719 58.1309C81.3536 57.5303 81.1492 56.768 81.6261 56.329C81.8532 56.1211 82.3983 55.867 82.2393 55.4974C81.9668 55.4512 81.4671 55.3126 81.2173 55.2202Z" fill="#223137"/>
<path d="M88.9393 48.6825C88.9165 48.0126 88.3715 47.6661 87.6901 47.5968C86.986 47.5275 86.5545 47.9895 86.3955 48.5208C86.282 48.8673 86.3728 49.26 86.3955 49.6296C86.441 51.085 86.3047 52.4941 85.4189 53.7185C84.7149 54.4346 83.8973 55.0121 82.9434 55.3355C82.6708 55.4279 82.2166 55.4741 81.8986 55.4972C81.7851 55.8899 82.4664 56.3982 82.7617 56.5368C83.5112 56.6061 83.0115 57.6456 83.4657 58.0152C84.6013 58.2231 86.5318 57.1605 87.304 56.1209C87.5993 55.7282 88.0989 54.8504 88.2806 54.4808C89.1891 52.6558 89.0301 50.6692 88.9393 48.6825Z" fill="#223137"/>
<path d="M82.1712 42.2378C82.2848 42.2609 82.3529 42.3302 82.3756 42.4226C82.3075 42.3764 82.2393 42.3071 82.1712 42.2378Z" fill="#8B3217"/>
<path d="M81.8532 42.0527C81.8532 42.0989 81.8305 42.1451 81.8305 42.1913C81.8078 42.1682 81.7851 42.1451 81.7397 42.122C81.7851 42.122 81.8305 42.0989 81.8532 42.0527Z" fill="#8B3217"/>
<path d="M32.16 90.2177C32.3871 89.9867 32.6142 89.9636 32.8186 90.2177C32.5915 90.2177 32.3644 90.2177 32.16 90.2177Z" fill="#203537"/>
<path d="M16.6479 60.5796C17.6388 60.5796 18.4421 59.7625 18.4421 58.7546C18.4421 57.7467 17.6388 56.9297 16.6479 56.9297C15.6569 56.9297 14.8536 57.7467 14.8536 58.7546C14.8536 59.7625 15.6569 60.5796 16.6479 60.5796Z" fill="#23363C"/>
<path d="M13.1048 49.6758C14.0958 49.6758 14.8991 48.8587 14.8991 47.8508C14.8991 46.8429 14.0958 46.0259 13.1048 46.0259C12.1139 46.0259 11.3106 46.8429 11.3106 47.8508C11.3106 48.8587 12.1139 49.6758 13.1048 49.6758Z" fill="#23363C"/>
<path d="M17.1476 27.4068C18.1385 27.4068 18.9418 26.5897 18.9418 25.5818C18.9418 24.5739 18.1385 23.7568 17.1476 23.7568C16.1566 23.7568 15.3533 24.5739 15.3533 25.5818C15.3533 26.5897 16.1566 27.4068 17.1476 27.4068Z" fill="#D9520C"/>
<path d="M54.5992 9.6885C55.5901 9.6885 56.3934 8.87143 56.3934 7.86354C56.3934 6.85564 55.5901 6.03857 54.5992 6.03857C53.6083 6.03857 52.805 6.85564 52.805 7.86354C52.805 8.87143 53.6083 9.6885 54.5992 9.6885Z" fill="#F8A516"/>
<path d="M36.9749 9.61916C37.9658 9.61916 38.7691 8.80209 38.7691 7.7942C38.7691 6.7863 37.9658 5.96924 36.9749 5.96924C35.984 5.96924 35.1807 6.7863 35.1807 7.7942C35.1807 8.80209 35.984 9.61916 36.9749 9.61916Z" fill="#F8AF16"/>
<path d="M74.5855 27.3374C75.5764 27.3374 76.3797 26.5204 76.3797 25.5125C76.3797 24.5046 75.5764 23.6875 74.5855 23.6875C73.5946 23.6875 72.7913 24.5046 72.7913 25.5125C72.7913 26.5204 73.5946 27.3374 74.5855 27.3374Z" fill="#CF4B0C"/>
<path d="M21.5536 61.0647C20.9404 63.9523 21.8943 65.8696 21.8943 65.8696C21.8943 65.8696 25.5509 66.3779 27.4132 64.2526C30.5248 60.672 28.2082 53.5107 28.2082 53.5107C28.2082 53.5107 27.0953 54.7582 25.5282 56.0518C23.7112 57.5303 22.0306 58.7546 21.5536 61.0647Z" fill="url(#paint0_linear_309_10)"/>
<path d="M21.6445 65.1766L21.8943 65.8697C21.8943 65.8697 25.5509 66.3779 27.4132 64.2526C29.3665 62.0118 29.1848 58.3619 28.7759 55.9363C28.7759 55.9132 28.7759 55.8901 28.7759 55.8901C28.7759 55.8901 27.6404 59.6556 26.8227 60.8568C24.8695 63.6982 21.6445 65.1766 21.6445 65.1766Z" fill="url(#paint1_linear_309_10)"/>
<path d="M17.0794 50.9002C16.716 53.834 17.8516 55.6589 17.8516 55.6589C17.8516 55.6589 21.5536 55.8437 23.2116 53.5337C26.0051 49.6758 23.0526 42.7456 23.0526 42.7456C23.0526 42.7456 22.076 44.1086 20.6224 45.5177C18.8964 47.181 17.352 48.5439 17.0794 50.9002Z" fill="url(#paint2_linear_309_10)"/>
<path d="M17.5336 54.9888L17.8516 55.6588C17.8516 55.6588 21.5536 55.8436 23.2116 53.5335C24.9604 51.131 24.4607 47.5042 23.8248 45.1248C23.8248 45.1017 23.8021 45.0786 23.8021 45.0786C23.8021 45.0786 23.0072 48.9364 22.3031 50.207C20.6224 53.2101 17.5336 54.9888 17.5336 54.9888Z" fill="url(#paint3_linear_309_10)"/>
<path d="M12.5144 40.9901C12.3554 43.7852 13.5364 45.4485 13.5364 45.4485C13.5364 45.4485 17.034 45.3792 18.4648 43.0922C20.8496 39.2575 17.6245 32.9048 17.6245 32.9048C17.6245 32.9048 16.7842 34.2446 15.4896 35.7C14.0133 37.3632 12.6279 38.7493 12.5144 40.9901Z" fill="url(#paint4_linear_309_10)"/>
<path d="M13.1957 44.825L13.5364 45.4256C13.5364 45.4256 17.034 45.3563 18.4648 43.0693C19.9638 40.6669 19.2597 37.271 18.5102 35.0765C18.5102 35.0534 18.4875 35.0303 18.4875 35.0303C18.4875 35.0303 17.9651 38.7495 17.3973 39.9969C16.0119 42.9538 13.1957 44.825 13.1957 44.825Z" fill="url(#paint5_linear_309_10)"/>
<path d="M9.13029 41.9373C10.5838 44.3398 10.2886 46.3496 10.2886 46.3496C10.2886 46.3496 7.15437 47.9667 4.83778 46.6499C0.954075 44.4322 0.840515 37.271 0.840515 37.271C0.840515 37.271 2.20322 38.0564 4.02016 38.7032C6.10963 39.4425 7.972 40.02 9.13029 41.9373Z" fill="url(#paint6_linear_309_10)"/>
<path d="M10.3113 45.6566L10.2886 46.3496C10.2886 46.3496 7.15437 47.9666 4.83777 46.6499C2.40762 45.2638 1.45373 41.9142 1.06763 39.6273C1.06763 39.6042 1.06763 39.5811 1.06763 39.5811C1.06763 39.5811 3.24795 42.6073 4.33812 43.4158C6.94997 45.3562 10.3113 45.6566 10.3113 45.6566Z" fill="url(#paint7_linear_309_10)"/>
<path d="M12.0147 52.9098C13.8543 55.1968 13.8543 57.3452 13.8543 57.3452C13.8543 57.3452 10.811 59.4936 8.22182 58.454C3.86117 56.6984 2.72559 49.2368 2.72559 49.2368C2.72559 49.2368 4.26998 49.8605 6.2459 50.2764C8.51707 50.7615 10.5611 51.0849 12.0147 52.9098Z" fill="url(#paint8_linear_309_10)"/>
<path d="M13.7635 56.6289L13.8544 57.3682C13.8544 57.3682 10.811 59.5165 8.22184 58.477C5.47373 57.3682 4.02018 54.0416 3.2934 51.6854C3.2934 51.6623 3.27069 51.6392 3.27069 51.6392C3.27069 51.6392 5.97338 54.4806 7.22253 55.1736C10.2432 56.7906 13.7635 56.6289 13.7635 56.6289Z" fill="url(#paint9_linear_309_10)"/>
<path d="M15.8075 63.929C18.2604 65.523 18.8963 67.5789 18.8963 67.5789C18.8963 67.5789 16.6706 70.582 13.877 70.3972C9.17572 70.12 5.8371 63.3746 5.8371 63.3746C5.8371 63.3746 7.49505 63.467 9.49369 63.236C11.833 62.9819 13.8543 62.6585 15.8075 63.929Z" fill="url(#paint10_linear_309_10)"/>
<path d="M18.6011 66.909L18.8963 67.5789C18.8963 67.5789 16.6706 70.582 13.877 70.3972C10.9245 70.2124 8.51708 67.5096 7.13166 65.4998C7.13166 65.4767 7.10895 65.4536 7.10895 65.4536C7.10895 65.4536 10.5384 67.3017 11.9465 67.5558C15.3079 68.1795 18.6011 66.909 18.6011 66.909Z" fill="url(#paint11_linear_309_10)"/>
<path d="M6.2459 33.3668C7.38148 35.9309 9.17571 36.8319 9.17571 36.8319C9.17571 36.8319 12.2645 35.1224 12.4916 32.4196C12.8777 27.8919 7.13166 23.7568 7.13166 23.7568C7.13166 23.7568 6.99538 25.3508 6.49573 27.2451C5.92793 29.4396 5.33743 31.3108 6.2459 33.3668Z" fill="url(#paint12_linear_309_10)"/>
<path d="M8.44892 35.931C8.53977 36.3006 9.15298 36.8319 9.15298 36.8319C9.15298 36.8319 12.2418 35.1225 12.4689 32.4197C12.7187 29.5783 10.5384 26.8986 8.90315 25.2816C8.88044 25.2585 8.85773 25.2354 8.85773 25.2354C8.85773 25.2354 10.0842 28.7698 10.1296 30.1558C10.1977 32.2118 8.94858 33.7364 8.47163 34.8915C8.4035 35.0994 8.33536 35.4921 8.44892 35.931Z" fill="url(#paint13_linear_309_10)"/>
<path d="M26.7773 34.4531C25.4146 35.0076 22.6438 33.968 22.0079 32.6282C21.6899 31.9583 21.917 31.3345 22.6211 31.0111C23.9156 30.4336 26.6183 31.1959 27.4132 32.3741C27.981 33.2288 27.7312 34.0604 26.7773 34.4531Z" fill="#23363C"/>
<path d="M29.639 29.6249C28.1854 29.7635 25.8234 27.9386 25.5963 26.4832C25.4828 25.744 25.8689 25.2127 26.641 25.1203C28.0492 24.9355 30.4112 26.4601 30.8427 27.8231C31.1607 28.7933 30.661 29.5094 29.639 29.6249Z" fill="#23363C"/>
<path d="M33.5454 25.0046C32.0918 24.7505 30.2976 22.3711 30.4339 20.9158C30.502 20.1535 31.0244 19.7607 31.7966 19.8531C33.2047 20.038 35.0898 22.1401 35.1806 23.5724C35.2261 24.6119 34.5674 25.1894 33.5454 25.0046Z" fill="#23363C"/>
<path d="M38.9054 21.7709C37.5654 21.1933 36.3389 18.4444 36.8159 17.0583C37.0657 16.3422 37.6562 16.065 38.383 16.3653C39.7003 16.8735 41.063 19.3684 40.8132 20.7775C40.6315 21.7709 39.8593 22.1867 38.9054 21.7709Z" fill="#23363C"/>
<path d="M44.8331 20.2691C43.9247 19.114 44.1518 16.0878 45.2192 15.0945C45.7643 14.5863 46.423 14.6325 46.9226 15.2331C47.8311 16.3189 47.8765 19.1834 46.9908 20.2922C46.3321 21.1238 45.4691 21.1007 44.8331 20.2691Z" fill="#23363C"/>
<path d="M54.9172 17.3124C55.3714 18.7216 54.145 21.4705 52.805 22.025C52.1236 22.3022 51.5331 22.025 51.2606 21.2857C50.7609 19.9459 51.7148 17.2431 52.9185 16.5039C53.8043 15.9957 54.5992 16.3191 54.9172 17.3124Z" fill="#23363C"/>
<path d="M61.5036 21.4008C61.4127 22.8793 59.3005 24.9814 57.847 25.0045C57.0975 25.0045 56.6433 24.5425 56.666 23.734C56.6887 22.3018 58.5283 20.1534 59.9365 19.9224C60.9131 19.7607 61.549 20.3382 61.5036 21.4008Z" fill="#23363C"/>
<path d="M66.6591 26.9222C66.1821 28.3314 63.5703 29.7636 62.1849 29.3709C61.4581 29.1861 61.1628 28.5855 61.39 27.8232C61.7988 26.4602 64.1381 24.8894 65.5462 25.0511C66.5228 25.1897 66.9771 25.9289 66.6591 26.9222Z" fill="#23363C"/>
<path d="M70.1113 32.8819C69.2937 34.1294 66.4093 34.7993 65.1601 34.0601C64.5242 33.6904 64.3652 33.0205 64.774 32.3737C65.5235 31.1494 68.1808 30.2715 69.4981 30.7797C70.4292 31.1725 70.6791 32.0041 70.1113 32.8819Z" fill="#23363C"/>
<path d="M67.3404 16.3416C66.0913 17.6352 66.6137 19.2292 66.7499 19.5526C66.977 20.1301 68.3852 21.8626 70.5882 21.262C74.2675 20.2225 75.0397 14.5166 75.0397 14.5166C75.0397 14.5166 73.9041 14.5859 72.2462 14.7476C70.3157 14.9324 68.635 15.0017 67.3404 16.3416Z" fill="url(#paint14_linear_309_10)"/>
<path d="M67.0906 18.8826C66.8635 19.0213 66.7045 19.2061 66.7953 19.5988C66.8862 20.0839 68.317 21.9088 70.7018 21.3082C73.0411 20.7307 74.1312 18.282 74.699 16.0875C74.699 16.0644 74.7672 15.8564 74.7672 15.8564C74.7672 15.8564 72.1099 17.9124 71.0424 18.3513C69.4299 19.0213 69.1119 18.8595 68.0445 18.8133C67.8401 18.7902 67.3631 18.6978 67.0906 18.8826Z" fill="url(#paint15_linear_309_10)"/>
<path d="M60.1863 11.0284C59.6412 12.761 60.8222 13.9391 61.072 14.1701C61.5262 14.5859 63.5476 15.51 65.251 13.9391C68.0899 11.3287 66.2503 5.87695 66.2503 5.87695C66.2503 5.87695 65.251 6.45447 63.8655 7.3554C62.2303 8.39494 60.754 9.24967 60.1863 11.0284Z" fill="url(#paint16_linear_309_10)"/>
<path d="M61.072 13.3845C60.9357 13.6155 60.8903 13.8465 61.1174 14.1468C61.4127 14.5396 63.5021 15.5329 65.3645 13.8927C67.1814 12.2988 67.0906 9.64219 66.6364 7.40142C66.6364 7.37832 66.5909 7.17041 66.5909 7.17041C66.5909 7.17041 65.1147 10.2197 64.3652 11.0975C63.2296 12.4143 62.8662 12.4143 61.8896 12.8763C61.7079 12.9918 61.231 13.1304 61.072 13.3845Z" fill="url(#paint17_linear_309_10)"/>
<path d="M42.8799 7.17072C43.1979 8.94948 44.765 9.43459 45.1057 9.52699C45.6962 9.6656 47.9219 9.52699 48.6941 7.35552C50.0114 3.7056 45.8779 -0.244629 45.8779 -0.244629C45.8779 -0.244629 45.2647 0.725604 44.447 2.20405C43.4704 3.89041 42.562 5.32266 42.8799 7.17072Z" fill="url(#paint18_linear_309_10)"/>
<path d="M44.7423 8.85724C44.7196 9.13445 44.7877 9.36546 45.1284 9.52716C45.5826 9.73507 47.8538 9.61956 48.7623 7.30949C49.648 5.04561 48.3308 2.71243 46.8999 0.956776L46.7636 0.771973C46.7636 0.771973 46.8545 4.16778 46.5819 5.29972C46.1731 7.00918 45.8552 7.19398 45.1965 8.04871C45.1284 8.18732 44.765 8.53383 44.7423 8.85724Z" fill="url(#paint19_linear_309_10)"/>
<path d="M32.4552 10.9593C33.0911 12.6456 31.9783 13.8931 31.7512 14.1472C31.3196 14.5861 29.3437 15.6025 27.5722 14.1472C24.597 11.6985 26.1414 6.1543 26.1414 6.1543C26.1414 6.1543 27.1634 6.66251 28.6169 7.49414C30.2749 8.44127 31.7739 9.2036 32.4552 10.9593Z" fill="url(#paint20_linear_309_10)"/>
<path d="M31.683 13.3848C31.842 13.6158 31.9102 13.8469 31.683 14.1472C31.4105 14.563 29.3892 15.6487 27.436 14.1472C25.5282 12.6687 25.4827 9.98902 25.8234 7.72515C25.8234 7.70205 25.8461 7.49414 25.8461 7.49414C25.8461 7.49414 27.4814 10.451 28.2763 11.3058C29.48 12.5763 29.8434 12.5532 30.8427 12.9459C31.0244 12.9921 31.5014 13.1307 31.683 13.3848Z" fill="url(#paint21_linear_309_10)"/>
<path d="M24.3926 16.3649C25.5963 17.7047 25.0058 19.2756 24.8695 19.599C24.6197 20.1765 23.1434 21.8628 20.9631 21.1698C17.3065 20.0148 16.7614 14.2627 16.7614 14.2627C16.7614 14.2627 17.897 14.3551 19.5322 14.5861C21.4627 14.8402 23.1434 14.9788 24.3926 16.3649Z" fill="url(#paint22_linear_309_10)"/>
<path d="M24.5515 18.9061C24.7786 19.0447 24.9149 19.2526 24.8241 19.6222C24.7105 20.1073 23.2342 21.8861 20.8722 21.1931C18.5556 20.5232 17.5563 18.0514 17.0566 15.8106C17.0566 15.7875 17.0112 15.5796 17.0112 15.5796C17.0112 15.5796 19.6004 17.728 20.6451 18.2131C22.2122 18.9292 22.5529 18.7906 23.6203 18.7906C23.802 18.7906 24.279 18.7213 24.5515 18.9061Z" fill="url(#paint23_linear_309_10)"/>
<path d="M32.864 52.7256C35.8166 50.8776 39.2915 49.8149 43.0162 49.8149C48.2626 49.8149 53.0321 51.9402 56.5297 55.3822C56.5751 55.336 56.6432 55.2898 56.6886 55.2436C60.2317 52.1481 62.4801 47.5741 62.4801 42.4458C62.4801 33.1593 55.0761 25.6284 45.946 25.6284C36.8159 25.6284 29.4119 33.1593 29.4119 42.4458C29.4119 46.3036 30.6837 49.838 32.8186 52.6794C32.8413 52.7025 32.8413 52.7256 32.864 52.7256Z" fill="url(#paint24_linear_309_10)"/>
<path d="M32.864 52.7252C35.8166 50.8771 39.2915 49.8145 43.0162 49.8145C48.2626 49.8145 53.0321 51.9397 56.5297 55.3818C56.5751 55.3356 56.6432 55.2894 56.6886 55.2431C60.2317 52.1476 62.4801 47.5737 62.4801 42.4453C62.4801 38.9571 61.4354 35.6999 59.6412 33.0202C59.6412 33.0202 59.0507 32.281 53.35 32.5351C48.308 32.743 42.3575 34.337 36.9294 36.3467C32.7732 37.8945 29.5936 39.9042 29.5936 39.9042C29.4573 40.7359 29.4119 41.5906 29.4119 42.4684C29.4119 46.3263 30.6837 49.8607 32.8186 52.7021C32.8413 52.7021 32.8413 52.7252 32.864 52.7252Z" fill="url(#paint25_linear_309_10)"/>
<path d="M32.864 52.7255C35.8166 50.8774 39.2915 49.8148 43.0162 49.8148C48.2626 49.8148 53.032 51.9401 56.5297 55.3821C56.5751 55.3359 56.6432 55.2897 56.6886 55.2435C60.1862 52.1942 62.412 47.7126 62.4801 42.6767C62.4801 42.6767 59.1415 39.9739 49.0348 39.8353C39.2233 39.7198 29.6617 45.287 29.6617 45.287C30.1159 48.036 31.2288 50.5771 32.8413 52.7024C32.8413 52.7024 32.8413 52.7255 32.864 52.7255Z" fill="url(#paint26_linear_309_10)"/>
<path d="M32.864 52.7256C35.8166 50.8776 39.2915 49.8149 43.0162 49.8149C48.2626 49.8149 53.032 51.9402 56.5297 55.3822C56.5751 55.336 56.6432 55.2898 56.6886 55.2436C58.6191 53.5804 60.1408 51.4782 61.1628 49.0757C61.1628 49.0757 56.2571 45.2641 47.127 45.1717C36.6342 45.0562 30.9108 49.4453 30.9108 49.4453C30.9108 49.4453 30.9108 49.4453 30.9108 49.4684C31.4332 50.6235 32.0691 51.7092 32.8186 52.7025C32.8413 52.7025 32.8413 52.7256 32.864 52.7256Z" fill="url(#paint27_linear_309_10)"/>
<path d="M45.8098 92.6665C49.9206 92.6665 54.3039 89.9406 58.0514 88.8318C60.5724 80.0535 46.8999 67.8101 34.1132 67.8101C25.937 67.8101 18.7374 72.0144 14.513 78.4133C22.1669 87.1685 33.341 92.6665 45.8098 92.6665Z" fill="url(#paint28_linear_309_10)"/>
<path d="M45.8097 92.6664C49.3982 92.6664 52.8958 92.2044 56.2117 91.3497C55.167 81.9246 45.9233 71.021 34.4312 71.021C26.9817 71.021 20.418 74.7864 16.4662 80.5154C24.0065 88.0232 34.3857 92.6664 45.8097 92.6664Z" fill="url(#paint29_linear_309_10)"/>
<path d="M45.8097 92.6663C49.7616 92.6663 53.5772 92.1119 57.1883 91.0954C53.9633 83.2874 46.3548 77.8125 37.4518 77.8125C31.1834 77.8125 25.5282 80.5384 21.6218 84.9044C28.458 89.7787 36.7932 92.6663 45.8097 92.6663Z" fill="url(#paint30_linear_309_10)"/>
<path d="M24.4608 86.7987C30.6838 90.5179 37.9742 92.6663 45.7416 92.6663C48.8759 92.6663 51.9419 92.3198 54.8945 91.6499C51.3514 85.7592 44.9467 81.832 37.6563 81.832C32.6143 81.832 28.0038 83.7032 24.4608 86.7987Z" fill="url(#paint31_linear_309_10)"/>
<path d="M29.798 89.2016C29.798 89.2016 35.9301 85.6441 37.9742 84.466C43.0162 81.5553 51.8965 79.4531 51.8965 79.4531L58.3693 81.5091C58.3693 81.5091 59.3005 82.3869 58.9371 82.4562C53.7361 83.4958 45.6508 87.0995 41.0176 89.4788C36.7705 91.6503 29.798 89.2016 29.798 89.2016Z" fill="url(#paint32_linear_309_10)"/>
<path d="M38.7237 90.7726C38.7237 90.7726 44.0609 87.6771 45.8552 86.6375C50.2385 84.0964 57.9832 82.2715 57.9832 82.2715L63.6157 84.0502C63.6157 84.0502 64.4106 84.8126 64.1154 84.8588C59.573 85.7597 52.5324 88.9014 48.5124 90.9805C44.7877 92.9209 38.7237 90.7726 38.7237 90.7726Z" fill="url(#paint33_linear_309_10)"/>
<path d="M85.6234 60.6256C85.2146 60.7411 84.8057 62.2427 84.8057 62.2427C84.8057 62.2427 84.4424 60.9028 83.9654 60.5794C83.3522 60.1636 82.5573 60.7411 82.5119 61.0414C82.2393 62.3813 82.0803 64.1831 81.7624 65.7309C81.6034 65.6847 81.4671 65.6385 81.3536 65.5923C79.6729 64.9917 78.5827 63.9059 78.2648 62.0579C78.1285 61.2262 78.1966 60.3946 78.1512 59.563C78.1285 58.8237 77.697 58.2462 77.1292 58.2C76.6977 58.1769 76.3116 58.2462 76.3116 58.2462C75.6302 58.3617 75.4939 58.893 75.4485 59.4475C75.4031 60.3022 75.335 61.18 75.4712 62.0117C75.5848 62.8433 75.5848 63.5132 76.2434 64.9685C77.0383 66.7473 78.5373 67.7868 80.3088 68.4106C80.377 68.4106 80.5587 68.4568 80.7403 68.503C79.8092 70.3741 78.8553 72.176 77.8787 73.6775C77.3336 73.5158 76.0617 72.0836 75.6302 71.6447C74.6763 70.6513 73.836 69.5194 72.7004 68.734C71.9963 68.0178 71.2696 67.371 70.4292 66.7935C68.4079 65.4075 66.1594 64.5065 63.8428 63.8366C60.3679 62.8433 57.3246 61.0876 54.6446 58.6158C51.9192 56.0979 48.8304 54.2267 45.1284 53.5568C43.9019 53.3258 42.6528 53.3951 41.4264 53.2103C40.6769 53.0948 39.9501 53.9957 40.0409 54.758C40.1545 55.8437 40.6542 56.3751 41.6989 56.4906C42.8799 56.6292 44.0836 56.6061 45.1965 56.9757C47.9446 57.8766 50.3521 59.332 52.487 61.3186C55.3032 63.9521 58.5283 65.8695 62.2303 66.9783C65.3645 67.9254 68.3397 69.2422 70.8153 71.5061C71.7465 72.5456 72.7231 73.5389 73.518 74.694C73.9268 75.2946 74.699 76.1493 74.9489 76.9116C74.4265 77.3275 73.7678 77.7664 73.0411 78.2746C73.0411 78.2746 72.9048 78.3439 72.655 78.4363C72.2234 77.9281 71.6557 77.3275 71.2014 76.8423C70.2702 75.849 67.3631 73.6544 66.9316 73.4234C64.8876 72.2915 62.6391 71.8064 60.4588 71.1365C60.1181 70.9979 59.7774 70.8361 59.4595 70.6975C58.1649 70.12 56.8022 69.658 55.6439 68.7802C54.8944 68.2027 54.2131 67.5327 53.4409 66.9783C53.1229 66.7473 52.8276 66.4932 52.5324 66.2391C51.6921 65.5692 50.9653 64.7606 50.0114 64.2293C49.1029 63.5132 48.2399 62.7509 47.286 62.1041C45.2419 60.718 42.9935 59.9788 40.5406 59.7709C39.7684 59.7016 38.9962 59.6323 38.2467 59.7478C37.3382 59.8633 36.6569 60.6949 36.725 61.5496C36.7932 62.4044 37.4291 63.0512 38.2921 63.0512C41.9033 63.0512 45.0148 64.3679 47.7629 66.678C49.1711 67.9254 50.6927 69.0343 52.01 70.3972C54.5764 73.0538 58.3012 74.2089 59.7547 74.6247C61.8442 75.2253 63.9337 75.8259 65.8414 76.8885C66.0459 77.0502 66.2503 77.1889 66.432 77.3737C67.2269 78.1591 68.2262 78.7597 68.7258 79.8223C66.977 80.2844 64.9557 80.6078 63.2069 80.3306C53.7361 78.7597 42.948 72.8921 35.3623 73.3079C28.299 73.7006 21.9851 76.7037 17.9879 81.9938C19.1462 83.0333 20.3499 84.0036 21.599 84.9045C25.5054 80.5616 31.1607 77.8126 37.4291 77.8126C45.6962 77.8126 44.6287 80.9312 62.0032 84.2346C60.9811 84.6735 59.9591 85.1124 58.9371 85.5051C52.1009 88.1386 45.4009 89.1782 45.0829 89.2013C39.4277 89.5478 33.8406 89.363 29.0712 89.2013C33.5227 91.2341 38.9281 92.7357 46.2412 92.7357C66.3638 92.7357 83.4658 77.3737 86.6 62.5661C86.8725 61.2955 86.5318 60.3484 85.6234 60.6256Z" fill="#223137"/>
<path d="M79.4231 40.3895C79.7183 41.9835 81.1265 42.3993 81.4217 42.4686C81.9441 42.5841 83.92 42.4455 84.6241 40.4819C85.7824 37.2247 82.0576 33.7134 82.0576 33.7134C82.0576 33.7134 81.5126 34.5912 80.7858 35.908C79.9455 37.4326 79.1278 38.7262 79.4231 40.3895Z" fill="url(#paint34_linear_309_10)"/>
<path d="M82.2166 42.4685C82.6255 42.6533 84.0336 42.0296 84.6922 40.4356C85.3509 38.8417 84.2834 36.3468 82.9888 34.776L82.8526 34.6143C82.8526 34.6143 82.8299 37.9408 82.739 38.6569C82.5346 40.2277 81.9214 42.3299 82.2166 42.4685Z" fill="url(#paint35_linear_309_10)"/>
<path d="M79.5594 50.9925C79.8546 52.5865 81.2627 53.0023 81.558 53.0716C82.0804 53.1871 84.0563 53.0485 84.7604 51.0849C85.9187 47.8277 82.1939 44.3164 82.1939 44.3164C82.1939 44.3164 81.6489 45.1942 80.9221 46.511C80.059 48.0587 79.2414 49.3524 79.5594 50.9925Z" fill="url(#paint36_linear_309_10)"/>
<path d="M82.3529 53.0945C82.7617 53.2793 84.1699 52.6556 84.8285 51.0616C85.4871 49.4677 84.4197 46.9728 83.1251 45.4019L82.9888 45.2402C82.9888 45.2402 82.9661 48.5667 82.8753 49.2829C82.6709 50.8537 82.0349 52.9328 82.3529 53.0945Z" fill="url(#paint37_linear_309_10)"/>
<path d="M79.3777 61.5267C79.6729 63.1207 81.0811 63.5365 81.3763 63.6058C81.8987 63.7213 83.8746 63.5827 84.5787 61.6191C85.737 58.3619 82.0122 54.8506 82.0122 54.8506C82.0122 54.8506 81.4672 55.7284 80.7404 57.0452C79.9001 58.5698 79.0824 59.8866 79.3777 61.5267Z" fill="url(#paint38_linear_309_10)"/>
<path d="M82.1712 63.6057C82.58 63.7905 83.9882 63.1668 84.6468 61.5729C85.3055 59.9789 84.238 57.484 82.9434 55.9132L82.8072 55.7515C82.8072 55.7515 82.7844 59.078 82.6936 59.7941C82.4892 61.365 81.876 63.4671 82.1712 63.6057Z" fill="url(#paint39_linear_309_10)"/>
</g>
<defs>
<linearGradient id="paint0_linear_309_10" x1="28.5769" y1="55.5409" x2="22.9423" y2="64.701" gradientUnits="userSpaceOnUse">
<stop stop-color="#DB5C15"/>
<stop offset="1" stop-color="#D44F12"/>
</linearGradient>
<linearGradient id="paint1_linear_309_10" x1="29.5379" y1="56.3497" x2="23.1942" y2="66.6626" gradientUnits="userSpaceOnUse">
<stop stop-color="#9D310E"/>
<stop offset="1" stop-color="#6D251B"/>
</linearGradient>
<linearGradient id="paint2_linear_309_10" x1="23.5912" y1="44.7589" x2="18.8036" y2="54.4049" gradientUnits="userSpaceOnUse">
<stop stop-color="#DB5C15"/>
<stop offset="1" stop-color="#D44F12"/>
</linearGradient>
<linearGradient id="paint3_linear_309_10" x1="24.6197" y1="45.4765" x2="19.2296" y2="56.3364" gradientUnits="userSpaceOnUse">
<stop stop-color="#9D310E"/>
<stop offset="1" stop-color="#6D251B"/>
</linearGradient>
<linearGradient id="paint4_linear_309_10" x1="18.2898" y1="34.7561" x2="14.3807" y2="44.2116" gradientUnits="userSpaceOnUse">
<stop stop-color="#DB5C15"/>
<stop offset="1" stop-color="#D44F12"/>
</linearGradient>
<linearGradient id="paint5_linear_309_10" x1="19.3094" y1="35.3687" x2="14.9083" y2="46.0142" gradientUnits="userSpaceOnUse">
<stop stop-color="#9D310E"/>
<stop offset="1" stop-color="#6D251B"/>
</linearGradient>
<linearGradient id="paint6_linear_309_10" x1="1.13431" y1="39.2153" x2="9.00128" y2="45.6341" gradientUnits="userSpaceOnUse">
<stop stop-color="#DB5C15"/>
<stop offset="1" stop-color="#D44F12"/>
</linearGradient>
<linearGradient id="paint7_linear_309_10" x1="0.520057" y1="40.2449" x2="9.37709" y2="47.4716" gradientUnits="userSpaceOnUse">
<stop stop-color="#9D310E"/>
<stop offset="1" stop-color="#6D251B"/>
</linearGradient>
<linearGradient id="paint8_linear_309_10" x1="3.28914" y1="51.2374" x2="12.393" y2="56.8057" gradientUnits="userSpaceOnUse">
<stop stop-color="#DB5C15"/>
<stop offset="1" stop-color="#D44F12"/>
</linearGradient>
<linearGradient id="paint9_linear_309_10" x1="2.79289" y1="52.4011" x2="13.0425" y2="58.6702" gradientUnits="userSpaceOnUse">
<stop stop-color="#9D310E"/>
<stop offset="1" stop-color="#6D251B"/>
</linearGradient>
<linearGradient id="paint10_linear_309_10" x1="7.00304" y1="65.0962" x2="17.3389" y2="67.5883" gradientUnits="userSpaceOnUse">
<stop stop-color="#DB5C15"/>
<stop offset="1" stop-color="#D44F12"/>
</linearGradient>
<linearGradient id="paint11_linear_309_10" x1="6.887" y1="66.3593" x2="18.5236" y2="69.165" gradientUnits="userSpaceOnUse">
<stop stop-color="#9D310E"/>
<stop offset="1" stop-color="#6D251B"/>
</linearGradient>
<linearGradient id="paint12_linear_309_10" x1="8.55311" y1="25.1139" x2="9.51217" y2="35.3242" gradientUnits="userSpaceOnUse">
<stop stop-color="#FAB715"/>
<stop offset="0.5116" stop-color="#F7A40E"/>
<stop offset="1" stop-color="#D87007"/>
</linearGradient>
<linearGradient id="paint13_linear_309_10" x1="9.67956" y1="25.1857" x2="10.7593" y2="36.6809" gradientUnits="userSpaceOnUse">
<stop stop-color="#D87007"/>
<stop offset="0.5051" stop-color="#CA4F10"/>
<stop offset="1" stop-color="#AD380F"/>
</linearGradient>
<linearGradient id="paint14_linear_309_10" x1="74.5635" y1="15.9557" x2="67.9206" y2="19.5002" gradientUnits="userSpaceOnUse">
<stop stop-color="#FAB715"/>
<stop offset="0.5116" stop-color="#F7A40E"/>
<stop offset="1" stop-color="#D87007"/>
</linearGradient>
<linearGradient id="paint15_linear_309_10" x1="75.3387" y1="16.9643" x2="67.5697" y2="21.1097" gradientUnits="userSpaceOnUse">
<stop stop-color="#D87007"/>
<stop offset="0.5051" stop-color="#CA4F10"/>
<stop offset="1" stop-color="#C44210"/>
</linearGradient>
<linearGradient id="paint16_linear_309_10" x1="66.4586" y1="7.37286" x2="62.0692" y2="13.56" gradientUnits="userSpaceOnUse">
<stop stop-color="#FAB715"/>
<stop offset="0.5116" stop-color="#F7A40E"/>
<stop offset="1" stop-color="#D87007"/>
</linearGradient>
<linearGradient id="paint17_linear_309_10" x1="67.5958" y1="7.92118" x2="62.4623" y2="15.1571" gradientUnits="userSpaceOnUse">
<stop stop-color="#D87007"/>
<stop offset="0.5051" stop-color="#CA4F10"/>
<stop offset="1" stop-color="#C44210"/>
</linearGradient>
<linearGradient id="paint18_linear_309_10" x1="46.7458" y1="0.957139" x2="45.7913" y2="8.52398" gradientUnits="userSpaceOnUse">
<stop stop-color="#FAB715"/>
<stop offset="0.5116" stop-color="#F7A40E"/>
<stop offset="1" stop-color="#D87007"/>
</linearGradient>
<linearGradient id="paint19_linear_309_10" x1="48.0032" y1="0.902457" x2="46.8869" y2="9.75195" gradientUnits="userSpaceOnUse">
<stop stop-color="#D87007"/>
<stop offset="0.5051" stop-color="#CA4F10"/>
<stop offset="1" stop-color="#C44210"/>
</linearGradient>
<linearGradient id="paint20_linear_309_10" x1="25.9789" y1="7.67171" x2="30.6958" y2="13.6047" gradientUnits="userSpaceOnUse">
<stop stop-color="#FAB715"/>
<stop offset="0.5116" stop-color="#F7A40E"/>
<stop offset="1" stop-color="#D87007"/>
</linearGradient>
<linearGradient id="paint21_linear_309_10" x1="24.8728" y1="8.28233" x2="30.3892" y2="15.221" gradientUnits="userSpaceOnUse">
<stop stop-color="#D87007"/>
<stop offset="0.5051" stop-color="#CA4F10"/>
<stop offset="1" stop-color="#C44210"/>
</linearGradient>
<linearGradient id="paint22_linear_309_10" x1="17.1863" y1="15.6918" x2="23.7002" y2="19.4753" gradientUnits="userSpaceOnUse">
<stop stop-color="#FAB715"/>
<stop offset="0.5116" stop-color="#F7A40E"/>
<stop offset="1" stop-color="#D87007"/>
</linearGradient>
<linearGradient id="paint23_linear_309_10" x1="16.3756" y1="16.6712" x2="23.9937" y2="21.096" gradientUnits="userSpaceOnUse">
<stop stop-color="#D87007"/>
<stop offset="0.5051" stop-color="#CA4F10"/>
<stop offset="1" stop-color="#C44210"/>
</linearGradient>
<linearGradient id="paint24_linear_309_10" x1="29.7187" y1="38.4102" x2="62.6489" y2="41.4715" gradientUnits="userSpaceOnUse">
<stop stop-color="#F3A313"/>
<stop offset="0.5116" stop-color="#FDC221"/>
<stop offset="1" stop-color="#F3A313"/>
</linearGradient>
<linearGradient id="paint25_linear_309_10" x1="29.4485" y1="41.3162" x2="62.3787" y2="44.3775" gradientUnits="userSpaceOnUse">
<stop stop-color="#EA770C"/>
<stop offset="0.5116" stop-color="#F38910"/>
<stop offset="1" stop-color="#C35011"/>
</linearGradient>
<linearGradient id="paint26_linear_309_10" x1="34.1155" y1="45.838" x2="58.9076" y2="48.0164" gradientUnits="userSpaceOnUse">
<stop stop-color="#E05710"/>
<stop offset="0.5116" stop-color="#E55B12"/>
<stop offset="1" stop-color="#9E3114"/>
</linearGradient>
<linearGradient id="paint27_linear_309_10" x1="35.5086" y1="48.654" x2="56.4089" y2="50.597" gradientUnits="userSpaceOnUse">
<stop stop-color="#C7430F"/>
<stop offset="0.5116" stop-color="#CE450F"/>
<stop offset="1" stop-color="#7C2A18"/>
</linearGradient>
<linearGradient id="paint28_linear_309_10" x1="14.5031" y1="80.2455" x2="58.3502" y2="80.2455" gradientUnits="userSpaceOnUse">
<stop stop-color="#D15E0A"/>
<stop offset="0.2877" stop-color="#E98215"/>
<stop offset="0.5116" stop-color="#FBB71F"/>
<stop offset="0.8084" stop-color="#EA8A0C"/>
<stop offset="1" stop-color="#E05710"/>
</linearGradient>
<linearGradient id="paint29_linear_309_10" x1="16.4646" y1="81.8399" x2="56.2157" y2="81.8399" gradientUnits="userSpaceOnUse">
<stop stop-color="#CB420E"/>
<stop offset="0.5116" stop-color="#D64C11"/>
<stop offset="1" stop-color="#C94214"/>
</linearGradient>
<linearGradient id="paint30_linear_309_10" x1="21.6187" y1="85.2294" x2="57.1876" y2="85.2294" gradientUnits="userSpaceOnUse">
<stop stop-color="#DD6014"/>
<stop offset="0.5116" stop-color="#FDB620"/>
<stop offset="1" stop-color="#F8AC19"/>
</linearGradient>
<linearGradient id="paint31_linear_309_10" x1="24.4683" y1="87.252" x2="54.8858" y2="87.252" gradientUnits="userSpaceOnUse">
<stop stop-color="#BE440E"/>
<stop offset="0.5116" stop-color="#E4650E"/>
<stop offset="1" stop-color="#E46F0B"/>
</linearGradient>
<linearGradient id="paint32_linear_309_10" x1="29.7952" y1="84.9076" x2="59.0243" y2="84.9076" gradientUnits="userSpaceOnUse">
<stop offset="0.1793" stop-color="#66271B"/>
<stop offset="0.4372" stop-color="#902A08"/>
<stop offset="0.7633" stop-color="#C8430E"/>
<stop offset="1" stop-color="#E35313"/>
</linearGradient>
<linearGradient id="paint33_linear_309_10" x1="38.7249" y1="87.0392" x2="64.1876" y2="87.0392" gradientUnits="userSpaceOnUse">
<stop offset="0.294" stop-color="#782516"/>
<stop offset="0.5763" stop-color="#AF3411"/>
<stop offset="1" stop-color="#DD4112"/>
</linearGradient>
<linearGradient id="paint34_linear_309_10" x1="82.8532" y1="34.8103" x2="82.0604" y2="41.572" gradientUnits="userSpaceOnUse">
<stop stop-color="#FAB715"/>
<stop offset="0.5116" stop-color="#F7A40E"/>
<stop offset="1" stop-color="#D87007"/>
</linearGradient>
<linearGradient id="paint35_linear_309_10" x1="84.2592" y1="34.7848" x2="83.341" y2="42.6156" gradientUnits="userSpaceOnUse">
<stop stop-color="#B3440D"/>
<stop offset="0.5051" stop-color="#CA4F10"/>
<stop offset="1" stop-color="#69271B"/>
</linearGradient>
<linearGradient id="paint36_linear_309_10" x1="82.9735" y1="45.4237" x2="82.1807" y2="52.1853" gradientUnits="userSpaceOnUse">
<stop stop-color="#FAB715"/>
<stop offset="0.5116" stop-color="#F7A40E"/>
<stop offset="1" stop-color="#D87007"/>
</linearGradient>
<linearGradient id="paint37_linear_309_10" x1="84.3795" y1="45.398" x2="83.4613" y2="53.2288" gradientUnits="userSpaceOnUse">
<stop stop-color="#B3440D"/>
<stop offset="0.5051" stop-color="#CA4F10"/>
<stop offset="1" stop-color="#69271B"/>
</linearGradient>
<linearGradient id="paint38_linear_309_10" x1="82.8103" y1="55.9516" x2="82.0175" y2="62.7132" gradientUnits="userSpaceOnUse">
<stop stop-color="#FAB715"/>
<stop offset="0.5116" stop-color="#F7A40E"/>
<stop offset="1" stop-color="#D87007"/>
</linearGradient>
<linearGradient id="paint39_linear_309_10" x1="84.2163" y1="55.9261" x2="83.2981" y2="63.7568" gradientUnits="userSpaceOnUse">
<stop stop-color="#B3440D"/>
<stop offset="0.5051" stop-color="#CA4F10"/>
<stop offset="1" stop-color="#69271B"/>
</linearGradient>
<clipPath id="clip0_309_10">
<rect width="95" height="93" fill="white"/>
</clipPath>
</defs>
</svg>
